<?xml version="1.0" encoding="UTF-8"?>
<svg id="Layer_1" data-name="Layer 1" xmlns="http://www.w3.org/2000/svg" viewBox="0 0 383.98 353.22">
  <defs>
    <style>
      .cls-1 {
        fill: #c6d32f;
      }

      .cls-1, .cls-2, .cls-3, .cls-4 {
        stroke-width: 0px;
      }

      .cls-2 {
        fill: #fff;
      }

      .cls-3 {
        fill: #32b2af;
      }

      .cls-4 {
        fill: #ea5e6c;
      }
    </style>
  </defs>
  <path class="cls-2" d="m1.47,168.32c-11.98,89.17,50.81,171.46,139.99,183.44,89.17,11.98,171.46-50.81,183.45-139.99,1.58-11.75,1.82-23.38.92-34.74l-19.11,3.64c.61,9.35.32,18.9-.98,28.53-10.56,78.61-83.1,133.96-161.7,123.4-78.6-10.57-133.96-83.1-123.39-161.7C31.19,92.29,103.73,36.93,182.33,47.5c18.13,2.43,35.01,8.2,50.14,16.55l8.51-17.39c-16.96-9.23-35.83-15.61-56.08-18.33C95.74,16.35,13.45,79.15,1.47,168.32"/>
  <path class="cls-4" d="m293.93,0l-8.65,17.67c39.23,28.78,67.63,70.64,79.61,118.23l19.09-3.64c-13.2-53.56-45.45-100.56-90.05-132.26"/>
  <path class="cls-1" d="m279.22,30.06l-8.67,17.7c30.17,23.71,52.12,56.84,61.97,94.3l19.01-3.62c-11.11-43.42-36.83-81.67-72.32-108.38"/>
  <path class="cls-3" d="m264.47,60.18l-8.78,17.94c21.22,18.41,36.83,42.77,44.49,70.09l19.06-3.63c-8.96-33.29-28.29-62.85-54.76-84.41"/>
  <path class="cls-2" d="m251.32,263.31l-87.42-174.84-87.5,174.84c-.66,1.32,0,2.4,1.48,2.4h6.37c1.48,0,3.23-1.08,3.89-2.4l75.77-151.37,75.68,151.37c.66,1.32,2.4,2.4,3.88,2.4h6.37c1.48,0,2.15-1.08,1.49-2.4"/>
  <path class="cls-2" d="m163.91,182.74l-18.92,37.73c-.66,1.32,0,2.4,1.48,2.4h6.37c1.47,0,3.22-1.08,3.88-2.4l7.18-14.37,7.19,14.37c.65,1.32,2.4,2.4,3.88,2.4h6.37c1.48,0,2.15-1.08,1.48-2.4l-18.92-37.73Z"/>
  <path class="cls-2" d="m163.91,135.41l-53.2,106.34c-.66,1.32,0,2.4,1.48,2.4h6.37c1.47,0,3.23-1.08,3.88-2.4l40.27-80.47,1.2-2.4,41.48,82.87c.66,1.32,2.41,2.4,3.89,2.4h6.37c1.48,0,2.14-1.08,1.49-2.4l-53.22-106.34Z"/>
</svg>